<?xml version="1.0" encoding="UTF-8" standalone="no"?>
<!-- Created with Inkscape (http://www.inkscape.org/) -->

<svg
   xmlns:dc="http://purl.org/dc/elements/1.1/"
   xmlns:cc="http://creativecommons.org/ns#"
   xmlns:rdf="http://www.w3.org/1999/02/22-rdf-syntax-ns#"
   xmlns:svg="http://www.w3.org/2000/svg"
   xmlns="http://www.w3.org/2000/svg"
   xmlns:xlink="http://www.w3.org/1999/xlink"
   xmlns:sodipodi="http://sodipodi.sourceforge.net/DTD/sodipodi-0.dtd"
   xmlns:inkscape="http://www.inkscape.org/namespaces/inkscape"
   id="svg2"
   sodipodi:docname="red2.svg"
   viewBox="0 0 453.3689 472.75812"
   version="1.1"
   inkscape:version="0.92.5 (2060ec1f9f, 2020-04-08)"
   width="453.3689"
   height="472.75812">
  <defs
     id="defs4">
    <linearGradient
       id="linearGradient3833">
      <stop
         id="stop3835"
         style="stop-color:#244a22"
         offset="0" />
      <stop
         id="stop3837"
         style="stop-color:#14190f;stop-opacity:.93725"
         offset="1" />
    </linearGradient>
    <linearGradient
       id="linearGradient3805">
      <stop
         id="stop3807"
         style="stop-color:#9baf72"
         offset="0" />
      <stop
         id="stop3809"
         style="stop-color:#224815"
         offset="1" />
    </linearGradient>
    <filter
       id="filter3779"
       height="1.2578"
       width="1.1884"
       y="-0.12890001"
       x="-0.094177999"
       inkscape:collect="always"
       style="color-interpolation-filters:sRGB">
      <feGaussianBlur
         id="feGaussianBlur3781"
         stdDeviation="0.71097991"
         inkscape:collect="always" />
    </filter>
    <filter
       id="filter4011-4"
       inkscape:collect="always"
       style="color-interpolation-filters:sRGB">
      <feGaussianBlur
         id="feGaussianBlur4013-5"
         stdDeviation="1.0676202"
         inkscape:collect="always" />
    </filter>
    <filter
       id="filter4047"
       inkscape:collect="always"
       style="color-interpolation-filters:sRGB">
      <feGaussianBlur
         id="feGaussianBlur4049"
         stdDeviation="1.1712317"
         inkscape:collect="always" />
    </filter>
    <filter
       id="filter4047-2"
       inkscape:collect="always"
       style="color-interpolation-filters:sRGB">
      <feGaussianBlur
         id="feGaussianBlur4049-3"
         stdDeviation="1.1712317"
         inkscape:collect="always" />
    </filter>
    <filter
       id="filter4111"
       height="1.3184"
       width="1.3293999"
       y="-0.15921"
       x="-0.16471"
       inkscape:collect="always"
       style="color-interpolation-filters:sRGB">
      <feGaussianBlur
         id="feGaussianBlur4113"
         stdDeviation="2.0250463"
         inkscape:collect="always" />
    </filter>
    <filter
       id="filter4111-1"
       width="1.3293999"
       y="-0.15921"
       x="-0.16471"
       height="1.3184"
       inkscape:collect="always"
       style="color-interpolation-filters:sRGB">
      <feGaussianBlur
         id="feGaussianBlur4113-4"
         stdDeviation="2.0250463"
         inkscape:collect="always" />
    </filter>
    <filter
       id="filter4111-8"
       width="1.3293999"
       y="-0.15921"
       x="-0.16471"
       height="1.3184"
       inkscape:collect="always"
       style="color-interpolation-filters:sRGB">
      <feGaussianBlur
         id="feGaussianBlur4113-5"
         stdDeviation="2.0250463"
         inkscape:collect="always" />
    </filter>
    <filter
       id="filter4111-8-6"
       width="1.3293999"
       y="-0.15921"
       x="-0.16471"
       height="1.3184"
       inkscape:collect="always"
       style="color-interpolation-filters:sRGB">
      <feGaussianBlur
         id="feGaussianBlur4113-5-7"
         stdDeviation="2.0250463"
         inkscape:collect="always" />
    </filter>
    <filter
       id="filter4111-8-8"
       width="1.3293999"
       y="-0.15921"
       x="-0.16471"
       height="1.3184"
       inkscape:collect="always"
       style="color-interpolation-filters:sRGB">
      <feGaussianBlur
         id="feGaussianBlur4113-5-5"
         stdDeviation="2.0250463"
         inkscape:collect="always" />
    </filter>
    <filter
       id="filter4111-8-66"
       width="1.3293999"
       y="-0.15921"
       x="-0.16471"
       height="1.3184"
       inkscape:collect="always"
       style="color-interpolation-filters:sRGB">
      <feGaussianBlur
         id="feGaussianBlur4113-5-9"
         stdDeviation="2.0250463"
         inkscape:collect="always" />
    </filter>
    <filter
       id="filter4111-8-4"
       width="1.3293999"
       y="-0.15921"
       x="-0.16471"
       height="1.3184"
       inkscape:collect="always"
       style="color-interpolation-filters:sRGB">
      <feGaussianBlur
         id="feGaussianBlur4113-5-4"
         stdDeviation="2.0250463"
         inkscape:collect="always" />
    </filter>
    <filter
       id="filter4111-8-1"
       width="1.3293999"
       y="-0.15921"
       x="-0.16471"
       height="1.3184"
       inkscape:collect="always"
       style="color-interpolation-filters:sRGB">
      <feGaussianBlur
         id="feGaussianBlur4113-5-1"
         stdDeviation="2.0250463"
         inkscape:collect="always" />
    </filter>
    <filter
       id="filter4274"
       inkscape:collect="always"
       style="color-interpolation-filters:sRGB">
      <feGaussianBlur
         id="feGaussianBlur4276"
         stdDeviation="1.1669255"
         inkscape:collect="always" />
    </filter>
    <filter
       id="filter4291"
       height="1.5723"
       width="1.5772001"
       y="-0.28615001"
       x="-0.28858"
       inkscape:collect="always"
       style="color-interpolation-filters:sRGB">
      <feGaussianBlur
         id="feGaussianBlur4293"
         stdDeviation="3.6048183"
         inkscape:collect="always" />
    </filter>
    <filter
       id="filter4291-7"
       width="1.5772001"
       y="-0.28615001"
       x="-0.28858"
       height="1.5723"
       inkscape:collect="always"
       style="color-interpolation-filters:sRGB">
      <feGaussianBlur
         id="feGaussianBlur4293-1"
         stdDeviation="3.6048183"
         inkscape:collect="always" />
    </filter>
    <filter
       id="filter4347"
       height="1.2482001"
       width="1.2174"
       y="-0.1241"
       x="-0.1087"
       inkscape:collect="always"
       style="color-interpolation-filters:sRGB">
      <feGaussianBlur
         id="feGaussianBlur4349"
         stdDeviation="6.0654977"
         inkscape:collect="always" />
    </filter>
    <linearGradient
       id="linearGradient4406"
       y2="697.79999"
       gradientUnits="userSpaceOnUse"
       x2="661.65002"
       gradientTransform="translate(16.289,-150.51)"
       y1="835.27002"
       x1="639.42999"
       inkscape:collect="always">
      <stop
         id="stop4393"
         style="stop-color:#830c1b"
         offset="0" />
      <stop
         id="stop4395"
         style="stop-color:#bc2609;stop-opacity:.0042194"
         offset="1" />
    </linearGradient>
    <linearGradient
       id="linearGradient4426"
       y2="773.56"
       gradientUnits="userSpaceOnUse"
       y1="811.53003"
       gradientTransform="translate(16.289,-150.51)"
       x2="579.83002"
       x1="496.73999"
       inkscape:collect="always">
      <stop
         id="stop4393-9"
         style="stop-color:#ddaddf"
         offset="0" />
      <stop
         id="stop4395-3"
         style="stop-color:#bc2609;stop-opacity:.0042194"
         offset="1" />
    </linearGradient>
    <linearGradient
       id="linearGradient4464"
       y2="757.40002"
       gradientUnits="userSpaceOnUse"
       y1="783.23999"
       gradientTransform="translate(16.289,-150.51)"
       x2="713.16998"
       x1="782.10999"
       inkscape:collect="always">
      <stop
         id="stop4393-9-5"
         style="stop-color:#ddaddf"
         offset="0" />
      <stop
         id="stop4395-3-8"
         style="stop-color:#bc2609;stop-opacity:.0042194"
         offset="1" />
    </linearGradient>
    <filter
       id="filter4543"
       height="1.3625"
       width="1.2501"
       y="-0.18124001"
       x="-0.12506001"
       inkscape:collect="always"
       style="color-interpolation-filters:sRGB">
      <feGaussianBlur
         id="feGaussianBlur4545"
         stdDeviation="10.527287"
         inkscape:collect="always" />
    </filter>
    <linearGradient
       id="linearGradient4549"
       y2="485.76001"
       xlink:href="#linearGradient3833"
       gradientUnits="userSpaceOnUse"
       x2="316.07001"
       y1="433.07999"
       x1="289.29001"
       inkscape:collect="always" />
    <linearGradient
       id="linearGradient4551"
       y2="487.72"
       gradientUnits="userSpaceOnUse"
       x2="302.29001"
       y1="487.72"
       x1="328.70999"
       inkscape:collect="always">
      <stop
         id="stop3825"
         style="stop-color:#244a22"
         offset="0" />
      <stop
         id="stop3827"
         style="stop-color:#5f9911"
         offset="1" />
    </linearGradient>
    <linearGradient
       id="linearGradient4553"
       y2="456.76001"
       xlink:href="#linearGradient3805"
       gradientUnits="userSpaceOnUse"
       x2="307.98999"
       y1="453.89001"
       x1="318.66"
       inkscape:collect="always" />
    <radialGradient
       id="radialGradient4555"
       gradientUnits="userSpaceOnUse"
       cy="469.5"
       cx="321.23001"
       gradientTransform="matrix(2.9198,-0.3316,0.27561,1.7724,-746.09,-256.13)"
       r="9.2413998"
       inkscape:collect="always">
      <stop
         id="stop3709"
         style="stop-color:#338000"
         offset="0" />
      <stop
         id="stop3711"
         style="stop-color:#338000;stop-opacity:0"
         offset="1" />
    </radialGradient>
    <radialGradient
       id="radialGradient4557"
       gradientUnits="userSpaceOnUse"
       cy="469.5"
       cx="321.23001"
       gradientTransform="matrix(3.9006,0.54104,-0.26254,1.8928,-808.48,-592.95)"
       r="9.2413998"
       inkscape:collect="always">
      <stop
         id="stop3719"
         style="stop-color:#9db174"
         offset="0" />
      <stop
         id="stop3721"
         style="stop-color:#9db174;stop-opacity:0"
         offset="1" />
    </radialGradient>
    <linearGradient
       id="linearGradient4559"
       y2="511.54999"
       gradientUnits="userSpaceOnUse"
       x2="301.26999"
       gradientTransform="matrix(0.49743,1.5024,1.9699,-0.53002,-804.93,308.35)"
       y1="511.54999"
       x1="245.87"
       inkscape:collect="always">
      <stop
         id="stop3835-5-9"
         style="stop-color:#244a22"
         offset="0" />
      <stop
         id="stop3837-2-1"
         style="stop-color:#142f0f;stop-opacity:.93671"
         offset="1" />
    </linearGradient>
    <linearGradient
       id="linearGradient4561"
       y2="511.54999"
       gradientUnits="userSpaceOnUse"
       x2="301.26999"
       gradientTransform="matrix(0.45334,1.5548,-2.0198,0.68257,1181.5,-296.41)"
       y1="511.54999"
       x1="245.87"
       inkscape:collect="always">
      <stop
         id="stop3835-5-9-0"
         style="stop-color:#244a22"
         offset="0" />
      <stop
         id="stop3837-2-1-1"
         style="stop-color:#142f0f;stop-opacity:.93671"
         offset="1" />
    </linearGradient>
    <linearGradient
       id="linearGradient4563"
       y2="511.54999"
       xlink:href="#linearGradient3833"
       gradientUnits="userSpaceOnUse"
       x2="301.26999"
       gradientTransform="matrix(1.0844,0,0,1,-20.772,0)"
       y1="511.54999"
       x1="245.87"
       inkscape:collect="always" />
    <linearGradient
       id="linearGradient4565"
       y2="502.16"
       xlink:href="#linearGradient3805"
       gradientUnits="userSpaceOnUse"
       x2="326.04001"
       y1="478.51999"
       x1="311.64001"
       inkscape:collect="always" />
    <linearGradient
       id="linearGradient4567"
       y2="511.54999"
       gradientUnits="userSpaceOnUse"
       x2="301.26999"
       gradientTransform="matrix(1.2403,0,0,1.2567,-66.442,-131.55)"
       y1="511.54999"
       x1="245.87"
       inkscape:collect="always">
      <stop
         id="stop3835-5"
         style="stop-color:#244a22"
         offset="0" />
      <stop
         id="stop3837-2"
         style="stop-color:#142f0f;stop-opacity:.93671"
         offset="1" />
    </linearGradient>
    <filter
       id="filter4575"
       height="2.0806"
       width="1.3658"
       y="-0.54031003"
       x="-0.18288"
       inkscape:collect="always"
       style="color-interpolation-filters:sRGB">
      <feGaussianBlur
         id="feGaussianBlur4577"
         stdDeviation="15.009461"
         inkscape:collect="always" />
    </filter>
    <linearGradient
       id="linearGradient4596"
       y2="582.14001"
       gradientUnits="userSpaceOnUse"
       x2="294.45999"
       gradientTransform="translate(300)"
       y1="466.47"
       x1="294.45999"
       inkscape:collect="always">
      <stop
         id="stop4489"
         style="stop-color:#e29239"
         offset="0" />
      <stop
         id="stop4491"
         style="stop-color:#e29239;stop-opacity:.016878"
         offset="1" />
    </linearGradient>
    <filter
       id="filter4617"
       height="2.1926999"
       width="2.3044"
       y="-0.59635001"
       x="-0.65221"
       inkscape:collect="always"
       style="color-interpolation-filters:sRGB">
      <feGaussianBlur
         id="feGaussianBlur4619"
         stdDeviation="7.8008082"
         inkscape:collect="always" />
    </filter>
    <filter
       id="filter4623"
       height="1.2192"
       width="1.3245"
       y="-0.10962"
       x="-0.16224"
       inkscape:collect="always"
       style="color-interpolation-filters:sRGB">
      <feGaussianBlur
         id="feGaussianBlur4625"
         stdDeviation="1.7071891"
         inkscape:collect="always" />
    </filter>
    <filter
       id="filter4623-3"
       width="1.3245"
       y="-0.10962"
       x="-0.16224"
       height="1.2192"
       inkscape:collect="always"
       style="color-interpolation-filters:sRGB">
      <feGaussianBlur
         id="feGaussianBlur4625-5"
         stdDeviation="1.7071891"
         inkscape:collect="always" />
    </filter>
    <filter
       id="filter4623-2"
       width="1.3245"
       y="-0.10962"
       x="-0.16224"
       height="1.2192"
       inkscape:collect="always"
       style="color-interpolation-filters:sRGB">
      <feGaussianBlur
         id="feGaussianBlur4625-8"
         stdDeviation="1.7071891"
         inkscape:collect="always" />
    </filter>
    <filter
       id="filter4715"
       inkscape:collect="always"
       style="color-interpolation-filters:sRGB">
      <feGaussianBlur
         id="feGaussianBlur4717"
         stdDeviation="0.072874945"
         inkscape:collect="always" />
    </filter>
    <filter
       id="filter4731"
       inkscape:collect="always"
       style="color-interpolation-filters:sRGB">
      <feGaussianBlur
         id="feGaussianBlur4733"
         stdDeviation="2.4681906"
         inkscape:collect="always" />
    </filter>
  </defs>
  <sodipodi:namedview
     id="base"
     bordercolor="#666666"
     inkscape:pageshadow="2"
     inkscape:window-y="0"
     pagecolor="#ffffff"
     inkscape:window-height="1403"
     inkscape:window-maximized="1"
     inkscape:zoom="0.98994948"
     inkscape:window-x="1920"
     showgrid="false"
     borderopacity="1.0"
     inkscape:current-layer="g4668"
     inkscape:cx="-215.33679"
     inkscape:cy="93.951434"
     inkscape:window-width="2560"
     inkscape:pageopacity="0.0"
     inkscape:document-units="px"
     fit-margin-left="20"
     fit-margin-top="20"
     fit-margin-right="-10"
     fit-margin-bottom="-50" />
  <g
     id="layer1"
     inkscape:label="Ebene 1"
     inkscape:groupmode="layer"
     transform="translate(-136.65425,-101.57853)">
    <g
       id="g4668"
       transform="matrix(1.3972,0,0,1.3972,-553.20098,-423.57305)">
      <path
         id="path4569"
         sodipodi:rx="98.489876"
         sodipodi:ry="33.335033"
         style="opacity:0.58990999;fill:#1a1a1a;filter:url(#filter4575)"
         sodipodi:type="arc"
         d="m 782.86823,680.62604 a 98.489876,33.335033 0 0 1 -97.60464,33.33368 98.489876,33.335033 0 0 1 -99.3592,-32.73447 98.489876,33.335033 0 0 1 95.81856,-33.92213 98.489876,33.335033 0 0 1 101.08164,32.12469"
         sodipodi:open="true"
         transform="matrix(1.1795,0,0,1.2986,-140.51,-223.92)"
         sodipodi:cy="680.62604"
         sodipodi:cx="684.37836"
         sodipodi:end="6.2472326"
         sodipodi:start="0" />
      <path
         id="path2890"
         sodipodi:nodetypes="ccccczzcc"
         style="fill:#bc2609"
         d="m 623.6,417.05 c 41.435,-14.944 82.36,-5.3977 117.86,16.429 24.327,17.607 40.838,35.344 52.143,72.143 6.5363,28.786 9.5491,60.302 -12.143,98.571 -23.275,41.837 -54.24,61.904 -77.143,70.714 -50.979,14.687 -98.262,14.572 -133.57,-11.429 -34.966,-25.747 -51.793,-59.2 -56.429,-90.714 -4.5466,-30.908 2.8029,-58.987 25.714,-92.857 26.545,-33.642 43.934,-45.628 83.571,-62.857 z"
         inkscape:connector-curvature="0" />
      <path
         id="path2890-2-3"
         sodipodi:nodetypes="ccccczzcc"
         style="fill:url(#linearGradient4426)"
         d="m 623.6,417.05 c 41.435,-14.944 82.36,-5.3977 117.86,16.429 24.327,17.607 40.838,35.344 52.143,72.143 6.5363,28.786 9.5491,60.302 -12.143,98.571 -23.275,41.837 -54.24,61.904 -77.143,70.714 -50.979,14.687 -98.262,14.572 -133.57,-11.429 -34.966,-25.747 -51.793,-59.2 -56.429,-90.714 -4.5466,-30.908 2.8029,-58.987 25.714,-92.857 26.545,-33.642 43.934,-45.628 83.571,-62.857 z"
         inkscape:connector-curvature="0" />
      <path
         id="path2890-2"
         sodipodi:nodetypes="ccccczzcc"
         style="fill:url(#linearGradient4406)"
         d="m 623.6,417.05 c 41.435,-14.944 82.36,-5.3977 117.86,16.429 24.327,17.607 40.838,35.344 52.143,72.143 6.5363,28.786 9.5491,60.302 -12.143,98.571 -23.275,41.837 -54.24,61.904 -77.143,70.714 -50.979,14.687 -98.262,14.572 -133.57,-11.429 -34.966,-25.747 -51.793,-59.2 -56.429,-90.714 -4.5466,-30.908 2.8029,-58.987 25.714,-92.857 26.545,-33.642 43.934,-45.628 83.571,-62.857 z"
         inkscape:connector-curvature="0" />
      <path
         id="path2890-2-3-3"
         sodipodi:nodetypes="ccccczzcc"
         style="fill:url(#linearGradient4464)"
         d="m 623.6,417.05 c 41.435,-14.944 82.36,-5.3977 117.86,16.429 24.327,17.607 40.838,35.344 52.143,72.143 6.5363,28.786 9.5491,60.302 -12.143,98.571 -23.275,41.837 -54.24,61.904 -77.143,70.714 -50.979,14.687 -98.262,14.572 -133.57,-11.429 -34.966,-25.747 -51.793,-59.2 -56.429,-90.714 -4.5466,-30.908 2.8029,-58.987 25.714,-92.857 26.545,-33.642 43.934,-45.628 83.571,-62.857 z"
         inkscape:connector-curvature="0" />
      <path
         id="path4533"
         sodipodi:rx="101.01525"
         sodipodi:ry="69.700523"
         style="fill:#c3150e;filter:url(#filter4543)"
         sodipodi:type="arc"
         d="m 461.6397,471.52448 a 101.01525,69.700523 0 0 1 -100.10732,69.6977 101.01525,69.700523 0 0 1 -101.90686,-68.44481 101.01525,69.700523 0 0 1 98.27543,-70.92808 101.01525,69.700523 0 0 1 103.67347,67.1698"
         sodipodi:open="true"
         transform="matrix(1.017,0,0,1.183,282.26,-49.428)"
         sodipodi:cy="471.52448"
         sodipodi:cx="360.62445"
         sodipodi:end="6.2472326"
         sodipodi:start="0" />
      <g
         id="g4323"
         style="opacity:0.92743997;filter:url(#filter4347)"
         transform="matrix(1,0,0,1.0065,300,-3.6144)">
        <g
           id="g4257"
           style="filter:url(#filter4274)">
          <path
             id="path3997"
             sodipodi:rx="14.89975"
             sodipodi:ry="14.89975"
             style="opacity:0.93059998;fill:#ffffff;filter:url(#filter4047)"
             sodipodi:type="arc"
             d="m 383.35291,443.49274 a 14.89975,14.89975 0 0 1 -14.76583,14.89914 14.89975,14.89975 0 0 1 -15.03127,-14.63131 14.89975,14.89975 0 0 1 14.49563,-15.16217 14.89975,14.89975 0 0 1 15.29184,14.35877"
             sodipodi:open="true"
             transform="matrix(0.97874,-0.43862,0.30637,0.89739,-130.61,211.22)"
             sodipodi:cy="443.49274"
             sodipodi:cx="368.45316"
             sodipodi:end="6.2472326"
             sodipodi:start="0" />
          <path
             id="path3997-5"
             sodipodi:rx="14.89975"
             sodipodi:ry="14.89975"
             style="opacity:0.96845003;fill:#ffffff;filter:url(#filter4011-4)"
             sodipodi:type="arc"
             sodipodi:start="0"
             sodipodi:open="true"
             inkscape:transform-center-x="11.412947"
             inkscape:transform-center-y="6.334907"
             transform="matrix(0.88542,-0.32955,0.27716,0.67423,-130.95,347.98)"
             sodipodi:cy="443.49274"
             sodipodi:cx="368.45316"
             sodipodi:end="6.2472326"
             d="m 383.35291,443.49274 a 14.89975,14.89975 0 0 1 -14.76583,14.89914 14.89975,14.89975 0 0 1 -15.03127,-14.63131 14.89975,14.89975 0 0 1 14.49563,-15.16217 14.89975,14.89975 0 0 1 15.29184,14.35877" />
          <path
             id="path3997-6"
             sodipodi:rx="14.89975"
             sodipodi:ry="14.89975"
             style="opacity:0.93059998;fill:#ffffff;filter:url(#filter4047-2)"
             sodipodi:type="arc"
             d="m 383.35291,443.49274 a 14.89975,14.89975 0 0 1 -14.76583,14.89914 14.89975,14.89975 0 0 1 -15.03127,-14.63131 14.89975,14.89975 0 0 1 14.49563,-15.16217 14.89975,14.89975 0 0 1 15.29184,14.35877"
             sodipodi:open="true"
             transform="matrix(0.94041,-0.31748,0.29437,0.64953,-216.43,325.69)"
             sodipodi:cy="443.49274"
             sodipodi:cx="368.45316"
             sodipodi:end="6.2472326"
             sodipodi:start="0" />
          <path
             id="path3997-6-1"
             sodipodi:rx="14.89975"
             sodipodi:ry="14.89975"
             style="opacity:0.93059998;fill:#ffffff;filter:url(#filter4111)"
             sodipodi:type="arc"
             d="m 383.35291,443.49274 a 14.89975,14.89975 0 0 1 -14.76583,14.89914 14.89975,14.89975 0 0 1 -15.03127,-14.63131 14.89975,14.89975 0 0 1 14.49563,-15.16217 14.89975,14.89975 0 0 1 15.29184,14.35877"
             sodipodi:open="true"
             transform="matrix(0.73657,-0.26101,0.23057,0.53401,-110.25,336.17)"
             sodipodi:cy="443.49274"
             sodipodi:cx="368.45316"
             sodipodi:end="6.2472326"
             sodipodi:start="0" />
          <path
             id="path3997-6-1-4"
             sodipodi:rx="14.89975"
             sodipodi:ry="14.89975"
             style="opacity:0.93059998;fill:#ffffff;filter:url(#filter4111-1)"
             sodipodi:type="arc"
             d="m 383.35291,443.49274 a 14.89975,14.89975 0 0 1 -14.76583,14.89914 14.89975,14.89975 0 0 1 -15.03127,-14.63131 14.89975,14.89975 0 0 1 14.49563,-15.16217 14.89975,14.89975 0 0 1 15.29184,14.35877"
             sodipodi:open="true"
             transform="matrix(0.73657,-0.26101,0.23057,0.53401,-103.43,325.31)"
             sodipodi:cy="443.49274"
             sodipodi:cx="368.45316"
             sodipodi:end="6.2472326"
             sodipodi:start="0" />
          <path
             id="path3997-6-1-5"
             sodipodi:rx="14.89975"
             sodipodi:ry="14.89975"
             style="opacity:0.93059998;fill:#ffffff;filter:url(#filter4111-8)"
             sodipodi:type="arc"
             d="m 383.35291,443.49274 a 14.89975,14.89975 0 0 1 -14.76583,14.89914 14.89975,14.89975 0 0 1 -15.03127,-14.63131 14.89975,14.89975 0 0 1 14.49563,-15.16217 14.89975,14.89975 0 0 1 15.29184,14.35877"
             sodipodi:open="true"
             transform="matrix(0.65147,-0.21024,0.20393,0.43014,-49.404,341.81)"
             sodipodi:cy="443.49274"
             sodipodi:cx="368.45316"
             sodipodi:end="6.2472326"
             sodipodi:start="0" />
          <path
             id="path3997-6-1-5-9"
             sodipodi:rx="14.89975"
             sodipodi:ry="14.89975"
             style="opacity:0.93059998;fill:#ffffff;filter:url(#filter4111-8-6)"
             sodipodi:type="arc"
             d="m 383.35291,443.49274 a 14.89975,14.89975 0 0 1 -14.76583,14.89914 14.89975,14.89975 0 0 1 -15.03127,-14.63131 14.89975,14.89975 0 0 1 14.49563,-15.16217 14.89975,14.89975 0 0 1 15.29184,14.35877"
             sodipodi:open="true"
             transform="matrix(0.65147,-0.21024,0.20393,0.43014,-36.524,333.48)"
             sodipodi:cy="443.49274"
             sodipodi:cx="368.45316"
             sodipodi:end="6.2472326"
             sodipodi:start="0" />
          <path
             id="path3997-6-1-5-94"
             sodipodi:rx="14.89975"
             sodipodi:ry="14.89975"
             style="opacity:0.93059998;fill:#ffffff;filter:url(#filter4111-8-8)"
             sodipodi:type="arc"
             d="m 383.35291,443.49274 a 14.89975,14.89975 0 0 1 -14.76583,14.89914 14.89975,14.89975 0 0 1 -15.03127,-14.63131 14.89975,14.89975 0 0 1 14.49563,-15.16217 14.89975,14.89975 0 0 1 15.29184,14.35877"
             sodipodi:open="true"
             transform="matrix(0.65147,-0.21024,0.20393,0.43014,-23.392,323.88)"
             sodipodi:cy="443.49274"
             sodipodi:cx="368.45316"
             sodipodi:end="6.2472326"
             sodipodi:start="0" />
          <path
             id="path3997-6-1-5-8"
             sodipodi:rx="14.89975"
             sodipodi:ry="14.89975"
             style="opacity:0.93059998;fill:#ffffff;filter:url(#filter4111-8-66)"
             sodipodi:type="arc"
             d="m 383.35291,443.49274 a 14.89975,14.89975 0 0 1 -14.76583,14.89914 14.89975,14.89975 0 0 1 -15.03127,-14.63131 14.89975,14.89975 0 0 1 14.49563,-15.16217 14.89975,14.89975 0 0 1 15.29184,14.35877"
             sodipodi:open="true"
             transform="matrix(0.65147,-0.21024,0.20393,0.43014,7.9224,314.79)"
             sodipodi:cy="443.49274"
             sodipodi:cx="368.45316"
             sodipodi:end="6.2472326"
             sodipodi:start="0" />
          <path
             id="path3997-6-1-5-6"
             sodipodi:rx="14.89975"
             sodipodi:ry="14.89975"
             style="opacity:0.93059998;fill:#ffffff;filter:url(#filter4111-8-4)"
             sodipodi:type="arc"
             d="m 383.35291,443.49274 a 14.89975,14.89975 0 0 1 -14.76583,14.89914 14.89975,14.89975 0 0 1 -15.03127,-14.63131 14.89975,14.89975 0 0 1 14.49563,-15.16217 14.89975,14.89975 0 0 1 15.29184,14.35877"
             sodipodi:open="true"
             transform="matrix(0.65235,0.20751,-0.084021,0.46856,145.41,227.67)"
             sodipodi:cy="443.49274"
             sodipodi:cx="368.45316"
             sodipodi:end="6.2472326"
             sodipodi:start="0" />
          <path
             id="path3997-6-1-5-3"
             sodipodi:rx="14.89975"
             sodipodi:ry="14.89975"
             style="opacity:0.93059998;fill:#ffffff;filter:url(#filter4111-8-1)"
             sodipodi:type="arc"
             d="m 383.35291,443.49274 a 14.89975,14.89975 0 0 1 -14.76583,14.89914 14.89975,14.89975 0 0 1 -15.03127,-14.63131 14.89975,14.89975 0 0 1 14.49563,-15.16217 14.89975,14.89975 0 0 1 15.29184,14.35877"
             sodipodi:open="true"
             transform="matrix(0.66645,-0.025643,0.14919,0.32357,48.401,361.71)"
             sodipodi:cy="443.49274"
             sodipodi:cx="368.45316"
             sodipodi:end="6.2472326"
             sodipodi:start="0" />
        </g>
        <path
           id="path3997-6-1-5-30"
           sodipodi:rx="14.89975"
           sodipodi:ry="14.89975"
           style="opacity:0.93059998;fill:#ffffff;filter:url(#filter4291)"
           sodipodi:type="arc"
           d="m 383.35291,443.49274 a 14.89975,14.89975 0 0 1 -14.76583,14.89914 14.89975,14.89975 0 0 1 -15.03127,-14.63131 14.89975,14.89975 0 0 1 14.49563,-15.16217 14.89975,14.89975 0 0 1 15.29184,14.35877"
           sodipodi:open="true"
           transform="matrix(0.65147,-0.21024,0.20393,0.43014,-38.545,417.82)"
           sodipodi:cy="443.49274"
           sodipodi:cx="368.45316"
           sodipodi:end="6.2472326"
           sodipodi:start="0" />
        <path
           id="path3997-6-1-5-30-9"
           sodipodi:rx="14.89975"
           sodipodi:ry="14.89975"
           style="opacity:0.93059998;fill:#ffffff;filter:url(#filter4291-7)"
           sodipodi:type="arc"
           d="m 383.35291,443.49274 a 14.89975,14.89975 0 0 1 -14.76583,14.89914 14.89975,14.89975 0 0 1 -15.03127,-14.63131 14.89975,14.89975 0 0 1 14.49563,-15.16217 14.89975,14.89975 0 0 1 15.29184,14.35877"
           sodipodi:open="true"
           transform="matrix(0.65147,-0.21024,0.20393,0.43014,-63.798,407.72)"
           sodipodi:cy="443.49274"
           sodipodi:cx="368.45316"
           sodipodi:end="6.2472326"
           sodipodi:start="0" />
      </g>
      <path
         id="path4485"
         sodipodi:nodetypes="ccccccccccccccccc"
         style="fill:url(#linearGradient4596);filter:url(#filter4731)"
         d="m 557.59,535.16 12.122,-9.0914 8.0812,-4.0406 16.162,-10.102 11.112,-2.0203 40.406,-21.213 10.224,-2.6733 -12.244,-1.3673 3.153,-7.7854 2.9079,-6.3568 -8.0812,-4.0406 h -3.0305 l -5.0508,1.0102 -22.223,3.0305 -5.0508,14.142 -20.203,17.173 -28.284,33.335 z"
         inkscape:connector-curvature="0" />
      <path
         id="path4621-4"
         d="m 586.14,512.69 c 8.4179,1.4968 18.351,22.301 26.769,34.85 -5.0669,-12.699 -7.8355,-30.784 -17.678,-39.901 l -9.0914,5.0508 z"
         sodipodi:nodetypes="cccc"
         style="opacity:0.62775999;fill:#600000;filter:url(#filter4623-2)"
         transform="matrix(-1.1109,-0.57068,-0.61679,1.0279,1581.2,323.77)"
         inkscape:connector-curvature="0" />
      <path
         id="path4621"
         d="m 621.24,510.42 c 8.4179,1.4968 18.351,22.301 26.769,34.85 -5.0669,-12.699 -7.8355,-30.784 -17.678,-39.901 l -9.0914,5.0508 z"
         sodipodi:nodetypes="cccc"
         style="opacity:0.62775999;fill:#600000;filter:url(#filter4623)"
         transform="matrix(0.8122,0,0,0.69546,116.91,154.17)"
         inkscape:connector-curvature="0" />
      <path
         id="path4621-2"
         d="m 643.21,489.96 c 8.4179,1.4968 18.351,22.301 26.769,34.85 -5.0669,-12.699 -7.8355,-30.784 -17.678,-39.901 l -9.0914,5.0508 z"
         sodipodi:nodetypes="cccc"
         style="opacity:0.62775999;fill:#600000;filter:url(#filter4623-3)"
         transform="matrix(0.78777,-0.77835,0.61597,0.99545,-172.64,516.37)"
         inkscape:connector-curvature="0" />
      <g
         id="g3981"
         transform="translate(300)">
        <path
           id="path2892"
           sodipodi:nodetypes="ccccccccccccccccccccccccccccccccc"
           style="fill:#3d6c38;stroke:#112b00;stroke-width:0.30000001"
           d="m 303.87,390.43 c 3.1157,26.702 8.6267,60.833 12.309,73.196 l 9.7475,1.977 c 3.0855,-19.782 8.0882,-39.972 13.867,-55.714 l 5.2,-8.97 c -6.292,26.836 -12.334,53.548 -10.714,76.429 7.3802,-10.935 19.948,-33.965 27.857,-50.209 -3.8365,14.877 -17.031,40.611 -22.857,53.066 -1.5248,9.2752 1.0936,9.8184 0,16.429 l -5,5.7143 -6.4286,5.7143 -9.2857,3.5714 -5,-0.71429 -3.9465,-0.96683 -3.9106,-0.46174 -0.72,-2.85 c -0.50265,-0.56733 -2.881,-1.9995 -18.571,0 l -19.286,7.8571 -20,10 -10,3.5714 -5.7143,2.1428 -5.7143,7.1429 -0.71429,6.4286 v -7.8571 l 5.7143,-8.5714 c 3.7567,-2.2342 1.0236,-0.16624 25,-15 l 23.571,-11.429 c 6.5791,-2.5915 13.705,-4.4433 20.714,-2.8571 -21.309,-21.302 -49.965,-40.756 -66.847,-63.03 23.05,19.972 40.552,26.31 76.133,55.173 l -4.9133,-22.143 c -1.2918,-11.195 -3.7076,-25.13 -3.6581,-45.714 l 3.153,-31.934 z"
           inkscape:connector-curvature="0" />
        <path
           id="path3831"
           style="fill:url(#linearGradient4549);filter:url(#filter4715)"
           d="m 289.29,476.65 24.286,23.214 2.5,-30 -6.7857,-36.786 5.3572,38.929 -6.0714,-3.9286 -3.5714,0.71428 4.6429,22.857 -20.357,-15 z"
           inkscape:connector-curvature="0" />
        <path
           id="path3813"
           sodipodi:nodetypes="ccccc"
           style="fill:url(#linearGradient4551)"
           d="m 312.86,508.43 -2.5,-40.357 16.071,-1.0714 1.7857,33.929 -15.357,7.5 z"
           inkscape:connector-curvature="0" />
        <path
           id="path3965"
           sodipodi:nodetypes="cccc"
           style="fill:url(#linearGradient4553)"
           d="m 303.93,397.66 c -0.89717,20.21 -2.8927,43.48 1.0714,69.387 3.057,0.7247 4.5374,0.0889 8.3517,1.6539 -5.7218,-16.443 -7.215,-47.55 -9.4231,-71.041 z"
           inkscape:connector-curvature="0" />
        <g
           id="g3765"
           transform="matrix(0.94519,0,0,0.92521,17.786,21.733)">
          <path
             id="path3666"
             sodipodi:rx="9.0913725"
             sodipodi:ry="6.5659914"
             style="fill:#9db174"
             sodipodi:type="arc"
             d="m 330.31989,469.50415 a 9.0913725,6.5659914 0 0 1 -9.05537,6.56594 9.0913725,6.5659914 0 0 1 -9.12709,-6.51393 9.0913725,6.5659914 0 0 1 8.98307,-6.61754 9.0913725,6.5659914 0 0 1 9.19825,6.46152"
             sodipodi:open="true"
             transform="matrix(0.99393,-0.11003,0.11003,0.99393,-52.369,50.756)"
             sodipodi:cy="469.50415"
             sodipodi:cx="321.22852"
             sodipodi:end="6.2673435"
             sodipodi:start="0" />
          <path
             id="path3666-2"
             sodipodi:rx="9.0913725"
             sodipodi:ry="6.5659914"
             style="fill:#89945a"
             sodipodi:type="arc"
             d="m 330.31989,469.50415 a 9.0913725,6.5659914 0 0 1 -9.05537,6.56594 9.0913725,6.5659914 0 0 1 -9.12709,-6.51393 9.0913725,6.5659914 0 0 1 8.98307,-6.61754 9.0913725,6.5659914 0 0 1 9.19825,6.46152"
             sodipodi:open="true"
             transform="matrix(0.90216,-0.098153,0.099871,0.88665,-18.336,97.087)"
             sodipodi:cy="469.50415"
             sodipodi:cx="321.22852"
             sodipodi:end="6.2673435"
             sodipodi:start="0" />
          <path
             id="path3666-5"
             sodipodi:rx="9.0913725"
             sodipodi:ry="6.5659914"
             style="fill:url(#radialGradient4555);filter:url(#filter3779)"
             sodipodi:type="arc"
             d="m 330.31989,469.50415 a 9.0913725,6.5659914 0 0 1 -9.00966,6.56573 9.0913725,6.5659914 0 0 1 -9.17162,-6.4477 9.0913725,6.5659914 0 0 1 8.84479,-6.68163 9.0913725,6.5659914 0 0 1 9.33061,6.32759"
             sodipodi:open="true"
             transform="matrix(0.65966,-0.089827,0.092379,0.64144,61.722,209.4)"
             sodipodi:cy="469.50415"
             sodipodi:cx="321.22852"
             sodipodi:end="6.2472326"
             sodipodi:start="0" />
          <path
             id="path3666-3"
             sodipodi:rx="9.0913725"
             sodipodi:ry="6.5659914"
             style="fill:url(#radialGradient4557)"
             sodipodi:type="arc"
             d="m 330.31989,469.50415 a 9.0913725,6.5659914 0 0 1 -8.80064,6.56263 9.0913725,6.5659914 0 0 1 -9.36351,-6.1429 9.0913725,6.5659914 0 0 1 8.20177,-6.95552 9.0913725,6.5659914 0 0 1 9.88808,5.69804"
             sodipodi:open="true"
             transform="matrix(0.42305,-0.047191,0.058678,0.34023,153.36,337.07)"
             sodipodi:cy="469.50415"
             sodipodi:cx="321.22852"
             sodipodi:end="6.1552478"
             sodipodi:start="0" />
        </g>
        <path
           id="path3841-4-1"
           sodipodi:nodetypes="cccc"
           style="fill:url(#linearGradient4559)"
           d="m 344.36,401.75 c -7.1186,33.565 -22.721,73.095 -9.9288,92.663 -4.185,-7.5641 -7.4074,-16.028 -6.9497,-27.933 4.9502,-27.935 11.006,-45.468 16.878,-64.731 z"
           inkscape:connector-curvature="0" />
        <path
           id="path3841-4-1-4"
           sodipodi:nodetypes="cccc"
           style="fill:url(#linearGradient4561)"
           d="m 240.18,442 c 25.933,24.275 46.265,31.211 70.276,59.827 -6.8138,-2.2266 -5.6353,-5.3907 -17.532,-14.821 -4.6453,-3.2527 -40.054,-31.37 -52.743,-45.005 z"
           inkscape:connector-curvature="0" />
        <path
           id="path3841"
           sodipodi:nodetypes="cccc"
           style="fill:url(#linearGradient4563)"
           d="m 246.07,521.29 c 20.976,-8.4982 44.393,-21.871 59.643,-18.929 -5.7595,-0.78332 -11.944,-0.97912 -19.752,1.0714 -17.631,6.6185 -28.171,12.147 -39.891,17.857 z"
           inkscape:connector-curvature="0" />
        <path
           id="path3785"
           sodipodi:nodetypes="cccccccccccccccccccccccccccccccc"
           style="fill:url(#linearGradient4565)"
           d="m 360,432.54 c -8.3282,16.293 -16.07,32.977 -25.714,48.393 -0.56113,3.6094 -0.23387,2.9063 -1.25,3.7857 l -0.17858,2.6428 2.1429,7.5 -2.8571,-12.857 -2.5,-7.5 -1.7857,-3.9286 -0.71428,-6.7857 -1.4286,6.4286 -0.35715,6.7857 -1.0714,7.8571 -4.6428,8.2143 -2.8572,8.5714 -1.4286,4.6428 c -0.207,-6.3737 -6.8324,-7.5621 -12.143,-7.8571 l -3.5714,1.4286 -0.35715,2.5 -0.35714,0.71429 -6.4286,0.35714 c -2.826,-0.34986 -10.111,1.9743 -16.25,4.4643 l -11.964,5.1786 -24.643,13.214 29.107,-13.393 13.393,-5.5357 c 7.381,-1.8102 14.762,-4.0092 22.143,-2.1429 l 8.2143,3.5714 5,-0.71428 c 6.7268,0.23938 10.705,-5.019 15.714,-8.2143 l 0.71428,-11.071 4.4643,-11.429 c 8.78,-14.94 14.52,-29.88 21.61,-44.82 z"
           inkscape:connector-curvature="0" />
        <path
           id="path3841-4"
           sodipodi:nodetypes="cccc"
           style="fill:url(#linearGradient4567)"
           d="m 238.75,523.53 c 23.991,-10.679 50.772,-27.484 68.214,-23.787 -6.5872,-0.98436 -13.66,-1.2304 -22.59,1.3464 -20.165,8.3172 -32.22,15.265 -45.624,22.44 z"
           inkscape:connector-curvature="0" />
      </g>
      <path
         id="path3997-6-1-5-2"
         sodipodi:rx="14.89975"
         sodipodi:ry="14.89975"
         style="opacity:0.89273999;fill:#ffffff;filter:url(#filter4617)"
         sodipodi:type="arc"
         d="m 383.35291,443.49274 a 14.89975,14.89975 0 0 1 -14.76583,14.89914 14.89975,14.89975 0 0 1 -15.03127,-14.63131 14.89975,14.89975 0 0 1 14.49563,-15.16217 14.89975,14.89975 0 0 1 15.29184,14.35877"
         sodipodi:open="true"
         transform="matrix(1.4585,-0.63656,0.45656,1.3023,-57.037,202.23)"
         sodipodi:cy="443.49274"
         sodipodi:cx="368.45316"
         sodipodi:end="6.2472326"
         sodipodi:start="0" />
    </g>
  </g>
  <metadata
     id="metadata135">
    <rdf:RDF>
      <cc:Work>
        <dc:format>image/svg+xml</dc:format>
        <dc:type
           rdf:resource="http://purl.org/dc/dcmitype/StillImage" />
        <cc:license
           rdf:resource="http://creativecommons.org/publicdomain/zero/1.0/" />
        <dc:publisher>
          <cc:Agent
             rdf:about="http://openclipart.org/">
            <dc:title>Openclipart</dc:title>
          </cc:Agent>
        </dc:publisher>
        <dc:title></dc:title>
        <dc:date>2011-02-08T15:56:20</dc:date>
        <dc:description>Solanum made in 10 Minutes with Incscape.</dc:description>
        <dc:source>https://openclipart.org/detail/117469/tomate-by-marauder</dc:source>
        <dc:creator>
          <cc:Agent>
            <dc:title>marauder</dc:title>
          </cc:Agent>
        </dc:creator>
        <dc:subject>
          <rdf:Bag>
            <rdf:li>Essen</rdf:li>
            <rdf:li>Paradeiser</rdf:li>
            <rdf:li>Paradiesapfel</rdf:li>
            <rdf:li>Solanum lycopersicum</rdf:li>
            <rdf:li>Tomate</rdf:li>
            <rdf:li>Tomato</rdf:li>
            <rdf:li>Vegetables</rdf:li>
            <rdf:li>biology</rdf:li>
            <rdf:li>color</rdf:li>
            <rdf:li>farm</rdf:li>
            <rdf:li>food</rdf:li>
            <rdf:li>fruits</rdf:li>
            <rdf:li>greens</rdf:li>
            <rdf:li>nature</rdf:li>
            <rdf:li>photorealistic</rdf:li>
            <rdf:li>plant</rdf:li>
            <rdf:li>vegetables</rdf:li>
          </rdf:Bag>
        </dc:subject>
      </cc:Work>
      <cc:License
         rdf:about="http://creativecommons.org/publicdomain/zero/1.0/">
        <cc:permits
           rdf:resource="http://creativecommons.org/ns#Reproduction" />
        <cc:permits
           rdf:resource="http://creativecommons.org/ns#Distribution" />
        <cc:permits
           rdf:resource="http://creativecommons.org/ns#DerivativeWorks" />
      </cc:License>
    </rdf:RDF>
  </metadata>
</svg>
