<svg xmlns="http://www.w3.org/2000/svg" height="20" viewBox="0 -960 960 960" width="20"><path d="M760.385-177.846 522.923-415.307q-30 23.538-65.792 36.038-35.792 12.5-71.558 12.5-87.135 0-148.2-61.029-61.066-61.029-61.066-148.077t61.029-148.202q61.029-61.154 148.077-61.154 87.049 0 148.202 61.065 61.154 61.065 61.154 148.201 0 38.073-13.269 73.865-13.269 35.792-35.269 63.485l237.462 237.461-23.308 23.308ZM385.538-398.769q74.616 0 125.923-51.308Q562.769-501.385 562.769-576q0-74.615-51.308-125.923-51.307-51.308-125.923-51.308-74.615 0-125.923 51.308Q208.308-650.615 208.308-576q0 74.615 51.307 125.923 51.308 51.308 125.923 51.308Z"/></svg>